<?xml version="1.0" standalone="no"?>
<!DOCTYPE svg PUBLIC "-//W3C//DTD SVG 1.1//EN" "http://www.w3.org/Graphics/SVG/1.1/DTD/svg11.dtd">
<svg viewBox="-6 -6 1036 380.003382063885" style="fill-opacity:0.5; stroke:black; stroke-width:1; fill:none" xmlns="http://www.w3.org/2000/svg" version="1.1">
<circle r="5" cx="61.078467" cy="98.24271" />
<circle r="5" cx="89.544819" cy="98.221148" />
<circle r="5" cx="107.609031" cy="85.12787" />
<circle r="5" cx="108.697097" cy="86.411655" />
<circle r="5" cx="108.564406" cy="156.865565" />
<circle r="5" cx="637.590727" cy="145.966664" />
<circle r="5" cx="71.924292" cy="84.250451" />
<circle r="5" cx="0" cy="41.327421" />
<circle r="5" cx="677.279415" cy="251.687337" />
<circle r="5" cx="92.286546" cy="105.498416" />
<circle r="5" cx="103.163885" cy="121.236391" />
<circle r="5" cx="92.233469" cy="105.45695" />
<circle r="5" cx="92.596711" cy="105.192398" />
<circle r="5" cx="17.298751" cy="85.113771" />
<circle r="5" cx="92.226835" cy="105.485977" />
<circle r="5" cx="91.012713" cy="104.601923" />
<circle r="5" cx="18.447357" cy="63.310992" />
<circle r="5" cx="35.29496" cy="78.272724" />
<circle r="5" cx="102.575069" cy="120.980131" />
<circle r="5" cx="18.428283" cy="63.340847" />
<circle r="5" cx="254.390915" cy="246.059583" />
<circle r="5" cx="247.0614" cy="209.739586" />
<circle r="5" cx="83.32659" cy="101.928201" />
<circle r="5" cx="73.133438" cy="100.223952" />
<circle r="5" cx="112.46552" cy="89.170797" />
<circle r="5" cx="90.095487" cy="91.658752" />
<circle r="5" cx="276.180425" cy="177.17806" />
<circle r="5" cx="291.105668" cy="204.942809" />
<circle r="5" cx="93.006394" cy="99.48337" />
<circle r="5" cx="100.473576" cy="89.763759" />
<circle r="5" cx="94.631029" cy="95.083836" />
<circle r="5" cx="95.305264" cy="96.63715" />
<circle r="5" cx="8.678817" cy="34.293972" />
<circle r="5" cx="33.793064" cy="0" />
<circle r="5" cx="164.154444" cy="139.87615" />
<circle r="5" cx="128.703573" cy="152.426224" />
<circle r="5" cx="111.490241" cy="126.719843" />
<circle r="5" cx="121.765496" cy="131.188211" />
<circle r="5" cx="120.043001" cy="131.502522" />
<circle r="5" cx="120.11764" cy="131.376466" />
<circle r="5" cx="239.266636" cy="128.399213" />
<circle r="5" cx="169.524281" cy="151.892143" />
<circle r="5" cx="147.73477" cy="131.513304" />
<circle r="5" cx="135.095959" cy="126.165859" />
<circle r="5" cx="101.699309" cy="110.962795" />
<circle r="5" cx="120.508249" cy="158.340093" />
<circle r="5" cx="109.747843" cy="152.387246" />
<circle r="5" cx="107.372676" cy="118.20772" />
<circle r="5" cx="11.683437" cy="126.620325" />
<circle r="5" cx="121.534945" cy="127.390762" />
<circle r="5" cx="122.734139" cy="149.252423" />
<circle r="5" cx="106.410666" cy="129.333855" />
<circle r="5" cx="140.76352" cy="130.185565" />
<circle r="5" cx="115.169927" cy="130.475826" />
<circle r="5" cx="81.182802" cy="102.960702" />
<circle r="5" cx="510.455395" cy="368.003382" />
<circle r="5" cx="73.685764" cy="135.757755" />
<circle r="5" cx="23.965642" cy="139.287334" />
<circle r="5" cx="866.563864" cy="50.136441" />
<circle r="5" cx="215.649308" cy="150.293217" />
<circle r="5" cx="699.833556" cy="187.481511" />
<circle r="5" cx="109.060339" cy="120.113494" />
<circle r="5" cx="232.953865" cy="166.333064" />
<circle r="5" cx="606.171172" cy="182.864696" />
<circle r="5" cx="372.450187" cy="136.187342" />
<circle r="5" cx="74.972867" cy="91.670362" />
<circle r="5" cx="204.688208" cy="176.235125" />
<circle r="5" cx="62.732128" cy="27.768066" />
<circle r="5" cx="14.354671" cy="45.939261" />
<circle r="5" cx="19.906128" cy="56.618393" />
<circle r="5" cx="30.319049" cy="36.15828" />
<circle r="5" cx="608.810063" cy="128.024361" />
<circle r="5" cx="8.062633" cy="58.446211" />
<circle r="5" cx="65.580836" cy="97.774975" />
<circle r="5" cx="60.513701" cy="105.757164" />
<circle r="5" cx="85.203338" cy="105.886537" />
<circle r="5" cx="100.145996" cy="100.117799" />
<circle r="5" cx="112.210919" cy="84.794484" />
<circle r="5" cx="89.305146" cy="105.105319" />
<circle r="5" cx="74.890764" cy="93.762732" />
<circle r="5" cx="80.588181" cy="91.321219" />
<circle r="5" cx="90.865923" cy="82.15891" />
<circle r="5" cx="89.401347" cy="104.166531" />
<circle r="5" cx="75.120485" cy="91.434836" />
<circle r="5" cx="111.054849" cy="106.773908" />
<circle r="5" cx="444.184565" cy="199.557215" />
<circle r="5" cx="42.835122" cy="104.397911" />
<circle r="5" cx="31.090316" cy="106.815374" />
<circle r="5" cx="215.471005" cy="79.464455" />
<circle r="5" cx="78.036369" cy="187.457461" />
<circle r="5" cx="116.811148" cy="127.58731" />
<circle r="5" cx="101.074832" cy="91.638848" />
<circle r="5" cx="96.073213" cy="100.602121" />
<circle r="5" cx="90.183394" cy="105.973616" />
<circle r="5" cx="972.313563" cy="185.637107" />
<circle r="5" cx="43.472868" cy="109.421921" />
<circle r="5" cx="30.032935" cy="132.914852" />
<circle r="5" cx="781.071923" cy="160.177034" />
<circle r="5" cx="127.932307" cy="151.739549" />
<circle r="5" cx="108.147259" cy="147.51583" />
<circle r="5" cx="102.913431" cy="153.200808" />
<circle r="5" cx="90.567369" cy="108.021203" />
<circle r="5" cx="83.628462" cy="90.802895" />
<circle r="5" cx="123.042646" cy="152.174111" />
<circle r="5" cx="385.678644" cy="273.179122" />
<circle r="5" cx="57.394635" cy="94.145048" />
<circle r="5" cx="38.793024" cy="104.008131" />
<circle r="5" cx="90.029224" cy="99.072858" />
<circle r="5" cx="82.142324" cy="94.13012" />
<circle r="5" cx="97.441589" cy="101.183473" />
<circle r="5" cx="106.912404" cy="104.916235" />
<circle r="5" cx="114.239432" cy="130.731256" />
<circle r="5" cx="134.503825" cy="142.492649" />
<circle r="5" cx="643.993893" cy="290.003504" />
<circle r="5" cx="129.900279" cy="138.302104" />
<circle r="5" cx="92.908534" cy="109.236983" />
<circle r="5" cx="91.833738" cy="105.174153" />
<circle r="5" cx="69.098805" cy="85.891672" />
<circle r="5" cx="90.509316" cy="107.338674" />
<circle r="5" cx="291.718534" cy="197.303957" />
<circle r="5" cx="112.796418" cy="118.581743" />
<circle r="5" cx="653.793948" cy="297.700407" />
<circle r="5" cx="290.973806" cy="205.027399" />
<circle r="5" cx="97.459834" cy="108.038618" />
<circle r="5" cx="103.181301" cy="103.025389" />
<circle r="5" cx="103.181301" cy="103.025389" />
<circle r="5" cx="180.993753" cy="152.385588" />
<circle r="5" cx="92.833896" cy="105.38397" />
<circle r="5" cx="92.084192" cy="104.565433" />
<circle r="5" cx="1024" cy="78.864028" />
<circle r="5" cx="108.338002" cy="195.748156" />
<circle r="5" cx="94.14256" cy="110.752148" />
<circle r="5" cx="96.968877" cy="105.291916" />
<circle r="5" cx="133.984672" cy="125.815886" />
<circle r="5" cx="137.362486" cy="127.573212" />
<circle r="5" cx="96.529338" cy="112.744171" />
<circle r="5" cx="79.466943" cy="102.593314" />
</svg>
